<?xml version="1.0" encoding="utf-8"?>
<svg version="1.1" id="compare-icon" xmlns="http://www.w3.org/2000/svg"
	xmlns:xlink="http://www.w3.org/1999/xlink"
	width="800px" height="800px" viewBox="0 0 32 32" xml:space="preserve">
<style type="text/css">
	.blueprint_een{fill:#111918;}
	.st0{fill:#111918;}
</style>
<path class="blueprint_een" d="M15.664,16.854l-1.325-1.325l0.707-0.707l1.324,1.324L15.664,16.854z M19.017,16h-2v1h2V16z
	 M13,14.207l0.354,0.354l0.707-0.707L13,12.793l-1.061,1.061l0.707,0.707L13,14.207z M26.641,17.831l1.358,1.358L28,17.776
	l-0.652-0.652L26.641,17.831z M21.678,15.529l-0.707-0.707l-1.324,1.324l0.707,0.707L21.678,15.529z M23,14.207l0.354,0.354
	l0.707-0.707L23,12.793l-1.061,1.061l0.707,0.707L23,14.207z M31,6v22c0,0.552-0.448,1-1,1H2c-0.552,0-1-0.448-1-1V6
	c0-0.552,0.448-1,1-1h28C30.552,5,31,5.448,31,6z M29,7H3v20h26V7z M11.678,15.529l-0.707-0.707l-1.324,1.324l0.707,0.707
	L11.678,15.529z M10,20.207L12.793,23h3.414l3-3h3l3.301-3.301l0.155,0.155l0.707-0.707l-0.155-0.155L28,14.207v-1.414l-2.492,2.492
	l-0.462-0.462l-0.707,0.707l0.462,0.462L21.793,19h-3l-3,3h-2.586L10,18.793L6.793,22H4v1h3.207L10,20.207z M6,16H4v1h2V16z M9,16H7
	v1h2V16z"/>
</svg>