<?xml version="1.0" encoding="UTF-8"?>
<svg width="1200" height="600" viewBox="0 0 1200 600" xmlns="http://www.w3.org/2000/svg">
  <defs>
    <linearGradient id="bg-gradient" x1="0%" y1="0%" x2="100%" y2="100%">
      <stop offset="0%" stop-color="#0f172a" />
      <stop offset="100%" stop-color="#1e293b" />
    </linearGradient>
    <pattern id="grid" width="40" height="40" patternUnits="userSpaceOnUse">
      <path d="M 40 0 L 0 0 0 40" fill="none" stroke="#334155" stroke-width="0.5" />
    </pattern>
    <filter id="glow" x="-20%" y="-20%" width="140%" height="140%">
      <feGaussianBlur stdDeviation="10" result="blur" />
      <feComposite in="SourceGraphic" in2="blur" operator="over" />
    </filter>
  </defs>
  
  <!-- Background -->
  <rect width="100%" height="100%" fill="url(#bg-gradient)" />
  <rect width="100%" height="100%" fill="url(#grid)" />
  
  <!-- Racing track elements -->
  <path d="M 0,400 C 200,350 400,500 600,300 S 1000,250 1200,300" 
        stroke="#475569" stroke-width="80" fill="none" />
  <path d="M 0,400 C 200,350 400,500 600,300 S 1000,250 1200,300" 
        stroke="#94a3b8" stroke-width="4" fill="none" />
  
  <!-- Track markers -->
  <g stroke="#f8fafc" stroke-width="6">
    <line x1="100" y1="380" x2="120" y2="380" />
    <line x1="300" y1="420" x2="320" y2="420" />
    <line x1="500" y1="340" x2="520" y2="340" />
    <line x1="700" y1="280" x2="720" y2="280" />
    <line x1="900" y1="270" x2="920" y2="270" />
    <line x1="1100" y1="290" x2="1120" y2="290" />
  </g>
  
  <!-- Abstract racing car shapes -->
  <path d="M 800,290 L 850,280 870,290 850,300 z" fill="#ef4444" filter="url(#glow)" />
  <path d="M 500,340 L 550,330 570,340 550,350 z" fill="#3b82f6" filter="url(#glow)" />
</svg>
