<svg viewBox="0 0 520 380" xmlns="http://www.w3.org/2000/svg"><g fill="none"><path d="m335.59 277.15.13.52 74.19-18.77 25.94-12.39c5.48-2.67 4.27-7.15 3.97-8.02l-.07-.22-1.49-5.64-.22 2.76c.01.77-.2 5.26-5.19 9.35l-.13.1c-.49.34-11.35 7.76-18.43 10.86l-.3.11-70.54 17.2-8.36 2.21z"/><path d="m416.46 185.22h-26.35s-109.92-.26-109.92-.26c-11.85.82-21.35 6.98-22.76 7.93l-22.19 23.14-.24.15c-20.31 13.17-35.74-4.09-35.9-4.27l-.31-.39-22.76-42.25c-2.71-5.56-3.14-10.13-3.16-10.33v-.11c-1-18.58 14.93-26.04 16.74-26.83 11.81-5.6 34.21 1.37 37.03 2.29 30.89 6.01 39.21 3.91 39.29 3.88l.47-.13h.21c28.31-3.37 41.66-28.39 42.21-29.46 1.08-2.48 1.25-4.54.48-6.06-1.1-2.17-3.91-3.08-4.66-3.28l-46.75-3.6-45.55-4.61-49.51-9.03-32.93-6.26-46.93 1.16c-2.36.55-3.06 1.25-3.12 1.41-.12.42.73 2.01 1.69 2.94l.17.18 55.48 63.7.19.39 51.14 101.95 14.95 21.01c1.12 1.4 2.16 2.72 3.16 4.02l7.54 5.33c6.67 4.66 11 11.36 11.19 11.64l.08.13c3.19 6.05 7.68 6.69 8.88 6.74l3.31-1.01 56.42-14.17 48.21-12.73 70.3-17.14c6.36-2.83 16.29-9.54 17.41-10.3 3.4-2.81 3.37-5.55 3.36-5.66v-.17s0-.11 0-.11l1.3-16-7-26.43c-3.14-7.12-10.9-7.43-11.22-7.44z"/><path d="m327.96 279.14-.49-1.91-32.21 8.51-56.34 14.15-4.11 1.18s-.09 0-.23 0c-1.39 0-8.57-.44-13.19-9.15-.23-.34-1.73-2.57-4.13-5.15 3.61 5.13 5.3 7.93 5.43 8.13l.06.11c1.56 2.88 3.89 7.13 5.02 9.2 1.07.1 2.52-.26 3.93-.6.55-.14 1.02-.25 1.47-.35l70.76-17.55 24.15-6.11-.12-.47z"/></g><path d="m331.8 283.53.34 1.31z"/><path d="m334.89 284.97-.21-.8.2.8z"/><path d="m446.36 236.39-12.13-45.79-.13-.38c-4.81-11.45-17-11.84-17.54-11.85h-26.43s-110.03-.26-110.03-.26h-.2c-15.02 1.01-26.24 9.06-26.72 9.4l-.17.13-22.05 23.02c-13.95 8.78-24.28-.72-26.44-2.98l-22.33-41.46c-1.99-4.12-2.41-7.48-2.45-7.79-.74-14.46 12.05-19.86 12.62-20.09l.17-.08c8.12-3.88 26.42.73 32.25 2.66l.36.09c30.27 5.91 40.13 4.46 42.52 3.84 32.33-3.99 46.73-32 47.34-33.21l.06-.14c2.01-4.57 2.12-8.64.34-12.1-2.78-5.41-9.22-6.83-9.49-6.88l-47.4-3.68-45.1-4.55-49.31-9-33.52-6.37-.1-.02-48.23 1.19-.41.07c-4.79 1.04-7.67 3.16-8.56 6.3-1.32 4.62 2.62 8.86 3.37 9.61l54.82 62.95 51.15 101.97 15.35 21.59.09.12c12.53 15.71 18.12 24.72 18.69 25.65 2.14 3.96 5.66 10.36 5.67 10.38l.52.95.97.48c1.26.62 2.64.92 4.2.92 1.88 0 3.65-.43 5.21-.81.45-.11.9-.22 1.36-.32l70.91-17.59 24.19-6.12-.54-2.09s-.65-2.53-.65-2.53-.52-2.03-.52-2.03l-24.15 6.11-70.76 17.55c-.45.1-.92.21-1.47.35-1.41.34-2.86.7-3.93.6-1.14-2.07-3.47-6.32-5.02-9.2l-.06-.11c-.12-.21-1.82-3-5.43-8.13 2.4 2.58 3.9 4.81 4.13 5.15 4.62 8.71 11.79 9.15 13.19 9.15h.23l4.11-1.18 56.34-14.15 32.21-8.51-.16-.64 2.55-.66 2.55-.65 2.55-.66.15.59 8.36-2.21 70.54-17.2.3-.11c7.08-3.11 17.94-10.52 18.43-10.86l.13-.1c4.99-4.08 5.2-8.58 5.19-9.35l.22-2.76 1.49 5.64.07.22c.3.87 1.51 5.34-3.97 8.02l-25.94 12.39-74.19 18.77.51 2s.65 2.55.65 2.55.54 2.1.54 2.1l74.73-18.91 26.67-12.72c8.92-4.35 8.8-12.62 7.52-16.31zm-12.98-1.29v.11s0 .17 0 .17c0 .12.04 2.85-3.36 5.66-1.12.76-11.05 7.47-17.41 10.3l-70.3 17.14-48.21 12.73-56.42 14.17-3.31 1.01c-1.2-.06-5.69-.69-8.88-6.74l-.08-.13c-.18-.28-4.52-6.98-11.19-11.64l-7.54-5.33c-1.01-1.29-2.05-2.62-3.16-4.02l-14.95-21.01-51.14-101.95-.19-.39-55.48-63.7-.17-.18c-.96-.92-1.81-2.52-1.69-2.94.06-.16.76-.86 3.12-1.41l46.93-1.16 32.93 6.26 49.51 9.03 45.55 4.61 46.75 3.6c.75.21 3.55 1.11 4.66 3.28.77 1.51.6 3.57-.48 6.06-.55 1.06-13.9 26.09-42.21 29.45h-.21s-.47.14-.47.14c-.08.02-8.4 2.13-39.29-3.88-2.81-.92-25.21-7.89-37.03-2.29-1.82.79-17.75 8.25-16.75 26.83v.11c.02.19.46 4.76 3.17 10.33l22.76 42.25.31.39c.15.18 15.58 17.43 35.9 4.27l.24-.15 22.19-23.14c1.41-.96 10.91-7.12 22.76-7.93l109.92.25h26.35c.33.02 8.09.34 11.22 7.46l7 26.43-1.3 16z"/><path d="m331.15 280.99-.34-1.31z"/><path d="m333.19 278.38-.01-.06z"/><path d="m333.04 277.78.01.05v-.02l2.54-.66-.5-1.93-2.54.67z"/><path d="m335.09 275.22-.15-.59-2.54.65.15.61z"/><path d="m327.96 279.14-.01-.03 2.55-.65-.49-1.9-2.54.67z"/><path d="m329.85 275.94-2.55.65.17.64 2.54-.67z"/><path d="m330.51 278.48.12.48 2.55-.64-.13-.49z"/><path d="m333.19 278.38-.01-.06-2.55.64.18.72.34 1.31 2.54-.66z"/><path d="m330.5 278.46.01.02 2.54-.65-.01-.05-2.55.66z"/><path d="m333.7 280.33-.51-1.95.5 1.95z"/><path d="m330.63 278.96.18.72z"/><path d="m333.7 280.35.64 2.48v.02l2.55-.65v.02l-.65-2.54.01.02z"/><path d="m333.66 280h2.63v.02h-2.63z" transform="matrix(.9683222 -.24970405 .24970405 .9683222 -59.3 92.49)"/><path d="m331.8 283.53-.65-2.54v.02l-2.54.65-.01-.02.65 2.52 2.54-.65z"/><path d="m331.15 281.01v-.02l-2.55.65.01.02z"/><path d="m332.34 285.61.09.38.09-.02 2.46-.63-.1-.37z"/><path d="m331.8 283.53.34 1.31.2.77 2.54-.64-.2-.8-.33-1.29z"/><path d="m331.8 283.53 2.55-.65-.01-.02v-.01-.02l-2.55.66z"/><path d="m334.35 282.88.33 1.29z"/><path d="m332.14 284.84.2.77z"/><path d="m335.09 285.38.63 2.48 2.55-.66-.66-2.54-.08.02.01.07z"/><path d="m335.09 285.38 2.45-.63-.01-.07-2.46.63z"/><path d="m332.45 286.03v.02l-2.46.64.64 2.48 2.55-.66-.65-2.5z"/><path d="m332.45 286.03h-.01l-.01-.04-2.45.63.01.07 2.46-.64z"/><path d="m332.44 285.98h.09v.05h-.09z" transform="matrix(.96858316 -.24868989 .24868989 .96858316 -60.69 91.7)"/><path d="m0 0h520v380h-520z" fill="none"/></svg>