<svg viewBox="0 0 520 380" xmlns="http://www.w3.org/2000/svg"><path d="m0 0h520v380h-520z" fill="none"/><g fill="#979797"><path d="m142.6 317.57-1.12-2.79c.93-.37 2.1-1 2.43-1.87.22-.57.09-1.3-.4-2.27-.36-.71-2.4-1.87-5.61-2.06l.18-2.99c3.9.24 7.08 1.69 8.1 3.71.33.65 1.31 2.61.53 4.69-.58 1.52-1.96 2.73-4.12 3.6z"/><path d="m127.07 311.73c-1.68 0-3.88-.45-6.87-1.06-1.3-.26-2.78-.57-4.48-.89l.56-2.95c1.72.33 3.21.63 4.52.9 6.77 1.38 7.25 1.3 7.87.08 2.13-4.15 4.09-3.68 11.39-1.93.78.19 1.63.39 2.57.61l-.69 2.92c-.94-.22-1.8-.43-2.58-.62q-6.96-1.67-8.01.37c-.96 1.88-2.22 2.55-4.28 2.55z"/><path d="m155.33 313.18c-2.93-.87-5.86-2.31-7.51-6.98-.23-.66-.36-1.64-.52-2.88-.21-1.62-.72-5.41-1.62-6.03l1.69-2.48c2.01 1.37 2.5 5.11 2.9 8.11.13.95.25 1.93.38 2.29 1.15 3.24 2.83 4.29 5.54 5.09l-.85 2.88z"/><path d="m70.17 357.73c-.73 0-1.36-.18-1.9-.54-1.44-.96-1.55-2.76-1.65-4.21-.03-.5-.09-1.33-.22-1.6-.57-.32-1.11-.53-2.25 1.06l-2.43-1.76c1.84-2.54 3.94-3.17 6.24-1.87 1.45.83 1.56 2.57 1.65 3.97.04.55.11 1.71.33 1.92s.33.14 1.42-.22l.95 2.85c-.8.27-1.51.4-2.15.4z"/><path d="m74.4 347.78c-1.18 0-2.25-.42-3.12-1.22-2.2-2.05-2.41-4.27-.67-7l2.53 1.61c-1.15 1.81-.71 2.37.18 3.19.33.31.73.46 1.2.42.7-.04 1.48-.46 2-1.07l2.29 1.94c-1.05 1.23-2.58 2.03-4.1 2.12-.1 0-.2 0-.3 0z"/><path d="m85.2 337.72-2.29-1.94c3.95-4.67 3.99-6.15 4.02-7.12.01-.43-.32-.81-.99-1.11-2.69-1.22-3.77-3.63-2.9-6.45.44-1.43 2.02-3.75 7.6-3.16.41.04.86.08 1.32.12 2.86.24 6.43.54 8.63 2.9 1.32 1.41 2.37 4.41.92 6.37-1.01 1.36-2.28 2.01-3.41 2.59-.66.34-1.29.66-1.76 1.09-.24.22-.49.43-.73.63-1.37 1.15-1.31 1.26-1.15 1.59.04.07.06.1.06.1.49.16 3.02-.55 5.97-1.37 1.67-.46 3.7-1.03 6.2-1.68l.76 2.9c-2.47.64-4.49 1.21-6.15 1.67-5.99 1.67-8.23 2.29-9.51-.27-1.29-2.55.63-4.16 1.9-5.23.22-.18.44-.37.66-.57.77-.69 1.6-1.12 2.41-1.53.95-.49 1.77-.91 2.36-1.7.29-.39-.04-1.82-.7-2.53-1.42-1.52-4.34-1.76-6.7-1.96-.49-.04-.96-.08-1.39-.13-1.91-.21-4.07-.03-4.41 1.06-.43 1.38-.04 2.23 1.28 2.83 1.8.82 2.8 2.26 2.74 3.94-.06 1.84-.46 3.91-4.73 8.96z"/></g><path d="m137.99 308.09c1.69.15 5.82 3.46 2.55 4.93-9.93 4.47-20.22 8.61-30.14 13.08l-8.71 5.91" fill="none" stroke="#000" stroke-miterlimit="10" stroke-width="1.3"/><path d="m42.95 378.18c-.44 0-.87-.05-1.31-.16-1.5-.37-2.71-1.36-3.59-2.93-.95-1.69-.76-3.11-.44-3.99.83-2.28 3.39-3.5 5.53-4.31 7.56-2.85 14.47-6.51 15.36-7.75.41-.65.53-1.75.66-2.92.17-1.48.36-3.15 1.19-4.72 1.64-3.05 5.88-7.91 9.98-12.6 3.03-3.46 6.15-7.04 6.91-8.47.11-.72-1.9-3.01-2.87-4.11-1.98-2.25-4.02-4.59-4.16-7.2-.08-1.41-.19-3.53 12.77-9.78 5.51-2.66 12.59-5.61 14.91-5.96 2.2-.33 8.19.77 18.6 2.75 5.28 1 10.75 2.04 15.04 2.68.82.11 1.57-.53 2.71-1.63 1.21-1.17 2.86-2.77 5.15-2.14 2.69.73 6-.08 6.82-3.02.17-.61.16-.63.01-1.16-.19-.64-.26-1.19-.32-1.64q-.1-.79-1.02-1.24c-.69-.34-1.41-.69-3.55 1.01-2.03 1.62-3.8 2.63-5.92 3.37-3.98 1.39-8.67 2.56-13.28.65-2.86-1.18-4.24-2.79-5.7-4.49-.9-1.05-1.84-2.15-3.31-3.38-2.6-2.18-7.5-4.24-8.75-4.2-.49.03-.8.06-1.03.09-.81.09-1.28.1-2.4-.2-2.07-.56-3.68-2.2-4.66-4.73-.67-1.76-.97-3.06-1.32-4.57-.16-.7-.34-1.46-.58-2.34-.17-.62-.52-1.31-.89-2.04-.6-1.18-1.29-2.51-1.51-4.14-.09-.64-.08-1.15-.07-1.53.01-.55.02-.74-.35-1.38-.37-.36-1.7-1.11-2.67-1.67-1.76-1.01-3.76-2.15-5.32-3.52-2.18-1.93-2.01-4.56-1.87-6.66.07-1.07.14-2.08-.04-3.02-.27-1.45-2.86-5.52-4.94-8.78-1.78-2.79-3.62-5.68-4.95-8.22l-.11-.23c-2.29-5.89-3-8.06-3.62-9.98-.26-.81-.52-1.6-.88-2.63-.31-.88-.62-1.71-.91-2.52-.89-2.43-1.74-4.73-2.36-7.33-.84-3.53-.44-7.05 1.15-9.91 1.66-2.99 3.8-5.44 5.87-7.8 2.61-2.98 5.08-5.8 6.74-9.72.41-.96.78-1.82 1.14-2.64 1.55-3.53 2.77-6.31 4.63-13.55.7-2.72.69-4.94.69-7.75 0-.64 0-1.31 0-2 .1-9.25-.29-17.77-1.19-26.06-.3-2.75-1.34-5.38-3.03-7.61-1.26-1.66-2.79-3.32-4.42-5.07-.94-1.02-1.89-2.04-2.79-3.07-1.83-2.09-2.03-5.32-.48-7.67 2-3.03 5.49-2.84 9.19-2.65 1.48.08 3.16.17 4.94.09 7.18-.34 10.38-.85 14.88-2.39 2.43-.84 4.71-1.51 6.92-2.16 3.23-.95 6.27-1.85 9.67-3.21.76-.3 1.48-.57 2.19-.84 3.13-1.17 5.61-2.09 8.78-4.85 2.26-1.97 3.94-3.61 5.81-6.21 1.43-1.99 2.27-4.12 3.01-6 .69-1.75 1.28-3.26 2.23-4.46 1.52-1.92 3.55-2.48 5.03-2.88.62-.17 1.48-.41 1.63-.63s.19-1.11.22-1.7c.08-1.72.19-4.08 2.11-6.11 1.32-1.4 3.83-1.98 7.01-2.71 1.76-.4 3.58-.82 5.22-1.39 1.75-.6 2.42-1.02 3.36-1.61.79-.49 1.77-1.11 3.51-1.91 3.3-1.52 5.09-2.15 6.82-2.75 1.94-.68 3.77-1.32 7.79-3.3 2.92-1.43 5.05-2.8 6.68-5.24 1.85-2.76 1.75-6.18 1.65-9.5l-.03-1.09c0-.38-.09-.8-.96-1.61-.15-.13-.75-.35-1.14-.49-.91-.34-2.04-.76-2.91-1.6-1.87-1.82-3.02-3.14-4.51-5.75-1.87-3.26-2.44-6.08-1.71-8.38 1.16-3.6 4.35-3.7 5.72-3.74 1.72-.06 7.71-.4 12.52-2.47.68-.29 1-.87 1.61-2.03.48-.92 1.08-2.07 2.1-3.12 1.36-1.4 3.7-3.25 6.19-4.25 4.56-1.81 9.13-.77 12.53 2.87 3.75 3.99 6.23 7.66 8.54 12.67.5 1.1.39 2.27.29 3.21-.03.25-.06.61-.07.88.04 0 .07.02.09.02.07-.05.14-.12.22-.18.73-.59 1.96-1.59 4.43-1.73 5.94-.36 13.14 1.91 18.33 5.8.65.48 1.3 1.04 1.94 1.58 1.29 1.11 2.63 2.26 3.83 2.55 2.22.52 3.5-1.23 3.63-1.43.51-.74.98-1.76 1.47-2.83 1.04-2.27 2.11-4.61 4.19-5.81 2.97-1.69 4.72-2.39 15.74-1.53 6 .46 9.54 1.66 12.39 2.61 2.19.74 3.77 1.27 5.86 1.31 2.4.06 5.12-.85 7.75-1.71 3.86-1.26 7.51-2.46 10.61-.95 3.51 1.71 5.18 4.93 4.36 8.41-.81 3.44-2.38 6.39-3.89 9.23-.81 1.53-1.58 2.97-2.18 4.41-4.37 10.42-2.71 16.07-2.33 17.09 1.72 4.66 4.13 8.41 8.3 12.96l.82.9c2.35 2.6 4.21 4.66 8.04 6.29l2.11.9c8.1 3.44 14.5 6.15 20.46 10.33 4.39 3.07 8.58 6.19 11.48 10.6 1.02 1.55 1.74 2.93 2.44 4.26.75 1.43 1.45 2.79 2.47 4.19 3.92 5.4 6.58 7.63 10.15 8.52 2.57.64 7.74-.06 13.15-1.78 1.04-.33 2.12-.77 3.27-1.24 3.19-1.29 6.8-2.76 10.53-2.1 2.94.52 5.08 1.2 6.97 1.79 2.27.72 3.91 1.23 6.11 1.24 3.42 0 7.1.39 8.44 3.28 1.02 2.19.63 3.93.12 4.99-1.21 2.56-4.03 3.52-5.18 3.82-1.02.27-2.19.58-3.43.92-7.13 1.94-11.61 3.08-13.63 2.78-.78-.12-1.83-.13-2.35.45-.4.45-.44 1.16-.38 1.36.25.59.73.99 1.4 1.16.79.19 1.47-.03 1.62-.16 1.31-1.73 3.23-2.3 6-2.95 3.4-.8 6.57-1.02 11.31-.78.29.01.56.02.83.03 1.86.06 3.78.13 8.56 1.48 3.24.91 9.72-3.26 12.16-4.83 2.8-1.8 2.87-2.81 2.97-4.21.08-1.12.19-2.66 1.4-4.22l.07-.09c1.81-2.35 4.05-5.27 9.07-6.35 5.52-1.18 19.47 11.91 19.94 12.56 1.17 1.62 1.75 3.4 2.26 4.98.47 1.44.87 2.69 1.58 3.46 1.13 1.21 1.94 1.9 2.8 2.63.81.68 1.64 1.39 2.66 2.48 1.89 2.02 4.36 12.69 3.23 15.69-.6 1.62-2.19 3.36-4.02 5.37-1.93 2.12-5.52 6.08-4.77 7.57 1.01 2.03 1.68 2.58 2.77 3.5.75.63 1.69 1.42 2.86 2.75 2.64 3.02 1.06 7.47.02 10.42l-.22.63c-.79 2.23-2.62 7.44-6.94 7.88-3.57.36-6.64-1.54-9.35-3.22-2.05-1.27-3.98-2.46-5.92-2.69-.25-.02-.56.22-1.57 1.36-1.1 1.24-2.61 2.93-5.2 4.39-5.53 3.11-8.8 7.32-9.65 9.39-.6 1.46-1.2 3.06-1.83 4.76-1.21 3.22-2.46 6.56-3.79 9.12-1.27 2.44-4.02 5.01-7.31 5.25-1.94.14-3.63-.12-5.12-.34-1.61-.25-3-.46-4.39-.14-2.53.59-4.51 1.56-7.01 2.8-.71.35-1.46.72-2.26 1.1-2.56 1.22-3.59 2.21-5.47 4-.47.45-.97.93-1.55 1.46-2.53 2.35-4.31 3.27-6.37 4.33l-.57.3c-1.76.91-3.65 1.13-5.32 1.33-.72.09-1.41.17-2.05.3-.5.1-1.06.27-1.66.45-1.75.53-3.94 1.18-6.68.82-2.8-.37-5.66-.59-8.43-.8-5.61-.43-11.4-.87-16.71-2.62-3.47-1.15-4.85-4.03-5.95-6.34-.99-2.08-1.68-3.39-3.13-3.96-1.55-.61-3.6-.26-5.22.11-.69.16-1.37.3-2.03.43-2.02.41-4.11.83-4.36 1.62-.91 2.94 1.81 5.73 6.06 9.65 3.4 3.14 6.93 6.39 7.67 10.5l.03.14c.49 2.7 1.24 6.78-1.34 12.02-1.29 2.64-3.99 4.54-8.24 5.79-4.63 1.38-16.44 3.08-27.86 4.73-3.89.56-7.7 1.11-11.06 1.62l-64.47 10.78c-4.06.7-8.98 1.49-13.73 2.25-9.07 1.45-18.45 2.95-21.82 3.84-10.61 2.79-22.52 10.88-27.6 14.34-.86.58-1.55 1.05-2.04 1.37-1.22.78-3.07 1.43-5.03 2.13-1.33.47-3.33 1.18-3.86 1.57-.28.33-.63.9-.96 1.45-1.09 1.79-2.45 4.02-4.92 4.6-2.63.61-4.22-.02-5.62-.57-.48-.19-.93-.37-1.45-.51-3.99-1.1-5.51-.38-7.44.52-.54.25-1.1.51-1.73.75l-40.89 18.29-.19.05c-2.41.63-4.39 1.17-6 1.62-6.07 1.68-8.84 2.45-10.4-.75-.62-1.28-1.07-1.7-1.23-1.83-.79.33-2.29 2.56-2.94 3.53-.33.49-.65.96-.94 1.37-1.37 1.88-3.21 4.05-4.99 6.16-2.55 3.02-6.82 8.06-6.94 9.58-.04 1.04 1.48 2.58 2.71 3.82 1.44 1.46 2.81 2.84 3.17 4.58.35 1.65-.2 2.83-.71 3.52-1.71 2.29-5.4 2.58-9.32 2.9-1.74.14-3.54.28-4.7.61-6.62 1.85-12.42 4.18-15.53 6.22-2.2 1.44-4.52 2.82-6.83 2.82zm-.98-5.55s.05.12.1.22c.16.29.41.65.67.71 1.02.25 3.65-1.47 4.52-2.04 5.01-3.3 13.43-5.86 16.82-6.81 1.59-.44 3.53-.6 5.57-.76 1.75-.14 4.92-.39 5.85-.96-.26-.56-1.24-1.54-1.9-2.21-1.85-1.87-4.15-4.19-4.03-7.23.11-2.88 3.12-6.58 8.02-12.37 1.73-2.04 3.51-4.15 4.78-5.9.26-.36.55-.78.84-1.23 1.74-2.59 3.89-5.81 7.1-5.58 2.68.19 4.19 2.76 4.83 4.05.92-.1 2.94-.66 5.22-1.29 1.6-.44 3.53-.98 5.89-1.59l40.74-18.22c.48-.18.96-.4 1.46-.63 2.34-1.1 4.99-2.34 10.6-.79.75.2 1.37.45 1.92.66 1.14.45 1.67.65 2.9.37.59-.14 1.5-1.63 2.04-2.52.48-.78.93-1.52 1.48-2.15.96-1.09 2.81-1.78 5.74-2.82 1.55-.55 3.31-1.17 4.07-1.66.47-.3 1.12-.75 1.94-1.3 5.28-3.59 17.64-11.99 29.01-14.98 3.6-.95 12.67-2.4 22.27-3.93 4.75-.76 9.65-1.54 13.69-2.24l64.51-10.79c3.4-.52 7.22-1.07 11.13-1.63 10.73-1.54 22.9-3.29 27.21-4.58 2.91-.86 4.74-2 5.42-3.41 1.91-3.88 1.37-6.81.94-9.17l-.03-.14c-.47-2.6-3.42-5.31-6.26-7.94-4.29-3.96-9.16-8.45-7.33-14.39 1.06-3.41 4.51-4.1 7.85-4.77.62-.12 1.26-.25 1.91-.4 2.27-.52 5.23-.98 7.95.1 3.21 1.26 4.53 4.03 5.59 6.26 1.01 2.12 1.71 3.45 3.24 3.95 4.77 1.57 10.04 1.97 15.61 2.4 2.83.22 5.77.44 8.69.83 1.76.23 3.21-.21 4.75-.67.67-.2 1.36-.41 2.07-.55.82-.17 1.63-.26 2.41-.35 1.41-.17 2.74-.33 3.75-.85l.58-.3c1.97-1.02 3.28-1.69 5.35-3.61.56-.52 1.04-.98 1.49-1.41 2-1.92 3.45-3.3 6.68-4.83.78-.37 1.5-.73 2.19-1.07 2.66-1.32 4.96-2.45 8.01-3.16 2.26-.52 4.23-.22 6.13.07 1.37.21 2.67.41 4.08.3 1.26-.09 2.79-1.29 3.57-2.79 1.21-2.31 2.4-5.51 3.56-8.61.62-1.66 1.26-3.37 1.89-4.89 1.35-3.3 5.48-8.18 11.65-11.65 1.92-1.08 3.03-2.33 4.02-3.44 1.33-1.5 2.84-3.19 5.54-2.87 2.95.34 5.42 1.87 7.8 3.34 2.29 1.42 4.46 2.76 6.47 2.55.53-.05 1.62-.75 3.05-4.82l.23-.65c.64-1.82 1.72-4.87.85-5.86-.93-1.07-1.65-1.67-2.35-2.25-1.28-1.07-2.5-2.09-3.94-4.97-2.16-4.31 2.08-8.98 5.48-12.72 1.25-1.38 2.82-3.1 3.11-3.89.37-1.57-1.3-9.54-2.34-11-.78-.83-1.45-1.4-2.22-2.05-.88-.74-1.88-1.59-3.2-3.01-1.4-1.52-2.01-3.38-2.59-5.17-.45-1.37-.87-2.67-1.61-3.7-1.56-1.82-12.61-10.75-15.3-10.75h-.03c-3.29.71-4.69 2.53-6.32 4.64l-.08.1c-.35.45-.39.83-.45 1.73-.17 2.48-.69 4.94-5.07 7.76-5.54 3.56-11.3 6.68-15.89 5.39-4.24-1.19-5.81-1.25-7.47-1.31-.3-.01-.6-.02-.91-.04-4.94-.25-7.5.07-10.02.66-2.34.55-3.08.84-3.45 1.32-1.12 1.46-3.29 2.22-5.53 1.93-2.46-.31-4.41-1.78-5.36-4.02-.63-1.48-.52-3.97.94-5.85.84-1.09 2.83-2.82 6.72-2.26 1.39.13 8.12-1.69 11.74-2.67 1.25-.34 2.44-.66 3.48-.93s1.93-.82 2.17-1.34c.05-.1.19-.39-.14-1.09 0 0-.61-.62-4.27-.62-2.9 0-5.13-.71-7.48-1.45-1.75-.55-3.74-1.18-6.39-1.65-2.42-.44-5.13.67-7.99 1.83-1.18.48-2.4.97-3.61 1.36-3.05.97-10.68 3.09-15.65 1.86-5.38-1.35-8.87-4.93-12.76-10.28-1.22-1.68-2.04-3.25-2.83-4.76-.64-1.23-1.31-2.5-2.2-3.86-2.45-3.73-6.26-6.55-10.27-9.35-5.57-3.9-11.77-6.53-19.62-9.86l-2.12-.9c-4.75-2.03-7.13-4.65-9.65-7.43l-.8-.88c-3.21-3.49-6.82-7.95-9.23-14.48-.68-1.84-2.5-8.76 2.4-20.46.68-1.63 1.53-3.23 2.36-4.78 1.37-2.59 2.8-5.27 3.47-8.13.4-1.7-.81-2.69-1.9-3.22-1.42-.69-4.34.26-7.16 1.19-2.86.94-6.1 1.99-9.27 1.94-2.8-.05-4.96-.78-7.25-1.54-2.74-.92-5.85-1.97-11.27-2.39-10.08-.78-11.13-.18-13.04.9-.86.5-1.69 2.31-2.36 3.76-.55 1.21-1.13 2.46-1.86 3.53-1.44 2.11-4.53 4.24-8.5 3.3-2.29-.55-4.13-2.14-5.76-3.54-.59-.51-1.15-.99-1.68-1.38-4.32-3.24-10.47-5.21-15.31-4.9-1 .06-1.3.31-1.81.72-1.1.89-2.48 1.75-5.07.81-3.1-1.13-2.78-4.24-2.65-5.57.03-.29.07-.73.06-.92-2.08-4.47-4.31-7.76-7.67-11.34-2.13-2.28-4.65-2.86-7.47-1.74-1.7.68-3.54 2.09-4.6 3.18-.55.57-.93 1.29-1.33 2.05-.74 1.41-1.65 3.16-3.86 4.11-5.4 2.33-11.73 2.77-14.2 2.85-1.32.04-1.35.13-1.49.55-.18.57-.25 1.94 1.32 4.69 1.23 2.15 2.1 3.16 3.71 4.72.18.17.86.43 1.32.6.87.32 1.86.69 2.65 1.42 1.04.95 2.41 2.5 2.45 4.91l.03 1.05c.1 3.66.23 8.21-2.43 12.19-2.2 3.29-4.98 5.1-8.48 6.81-4.27 2.1-6.22 2.78-8.3 3.51-1.63.57-3.32 1.16-6.42 2.59-1.47.68-2.24 1.16-2.99 1.63-1.06.66-2.05 1.28-4.3 2.06-1.88.65-3.9 1.11-5.69 1.52-1.67.38-4.19.96-4.72 1.41-.68.72-.76 1.67-.83 3.14-.06 1.31-.13 2.79-1.02 4.08-1.1 1.62-2.83 2.09-4.22 2.47-1.27.35-2.08.6-2.63 1.3-.53.67-1 1.88-1.55 3.29-.8 2.03-1.79 4.55-3.56 7.01-2.13 2.95-4.07 4.86-6.53 6.99-3.81 3.31-6.91 4.46-10.19 5.69-.68.25-1.38.51-2.1.8-3.59 1.43-6.89 2.4-10.07 3.34-2.16.64-4.39 1.3-6.73 2.1-4.93 1.69-8.55 2.28-16.16 2.64-2.01.09-3.81 0-5.4-.09-2.83-.15-4.59-.2-5.1.58-.37.56-.43 1.51.11 2.12.87 1 1.79 1.99 2.7 2.97 1.63 1.76 3.31 3.58 4.71 5.42 2.19 2.89 3.55 6.31 3.93 9.89.91 8.47 1.31 17.18 1.21 26.61v1.95c0 2.89 0 5.61-.84 8.9-1.96 7.6-3.25 10.54-4.88 14.25-.35.8-.72 1.64-1.12 2.58-1.94 4.61-4.78 7.84-7.52 10.97-2 2.28-3.88 4.43-5.3 6.99-1.31 2.37-1.1 4.91-.7 6.61.56 2.34 1.32 4.42 2.2 6.82.3.83.62 1.68.93 2.58.38 1.08.65 1.89.92 2.74.63 1.93 1.28 3.93 3.49 9.61 1.24 2.34 2.99 5.1 4.69 7.77 3.19 5.01 5.17 8.19 5.58 10.4.29 1.51.19 2.93.11 4.18-.11 1.72-.12 2.52.32 2.91 1.21 1.06 2.99 2.08 4.56 2.98 2.1 1.2 3.61 2.06 4.31 3.25 1 1.71 1.06 2.77 1.03 3.9 0 .29-.01.53.03.8.12.85.57 1.73 1.04 2.66.47.91.95 1.85 1.25 2.95.25.94.44 1.74.61 2.48.33 1.4.58 2.5 1.14 3.97.24.62.77 1.72 1.57 1.94.19.05.31.09.42.1.06 0 .15-.02.26-.03.3-.03.69-.08 1.3-.11 2.95-.15 8.94 2.75 11.94 5.27 1.76 1.48 2.92 2.83 3.85 3.91 1.28 1.49 2.12 2.48 3.96 3.23 3.18 1.31 6.69.42 10.01-.74 1.63-.57 2.95-1.33 4.57-2.62 3.91-3.11 6.57-2.46 8.44-1.54 2.9 1.42 3.34 3.08 3.56 4.78.04.34.08.63.17.93.4 1.37.4 2.27 0 3.68-1.37 4.92-6.67 7.65-12.16 6.3-.28.2-.73.63-1.04.94-1.38 1.33-3.46 3.35-6.59 2.88-4.38-.66-9.89-1.7-15.22-2.71-6.9-1.31-15.5-2.94-17.07-2.72-3.28.49-20.83 8.46-23.67 11.39.39 1.08 1.83 2.72 2.92 3.97 2.45 2.79 5.22 5.96 3.48 9.29-1 1.91-4.02 5.36-7.51 9.35-3.75 4.29-8 9.15-9.39 11.75-.42.78-.55 1.89-.68 3.06-.17 1.55-.37 3.31-1.34 4.86-2.4 3.83-17 9.37-17.62 9.6-2.11.8-2.67 1.37-2.81 1.54zm128.88-63.23s0 0 0 0z"/><path d="m134.49 315.01 1.64 3.88-3.88 1.64-1.64-3.88z"/><path d="m130.6 316.65 1.64 3.88-3.88 1.64-1.64-3.88z" fill="#fff"/><path d="m126.72 318.28 1.64 3.88-3.88 1.64-1.64-3.88z"/><path d="m136.11 318.86 1.64 3.88-3.88 1.64-1.64-3.88z" fill="#fff"/><path d="m128.34 322.13 1.64 3.88-3.88 1.64-1.64-3.88z" fill="#fff"/><path d="m132.21 320.47 1.64 3.88-3.88 1.64-1.64-3.88z"/><path d="m137.73 322.71 1.64 3.88-3.88 1.64-1.64-3.88 3.89-1.64z"/><path d="m133.85 324.34 1.64 3.88-3.88 1.64-1.64-3.88 3.89-1.64z" fill="#fff"/><path d="m129.96 325.98 1.64 3.88-3.89 1.64-1.64-3.88 3.88-1.64z"/><path d="m139.36 326.56 1.64 3.88-3.88 1.64-1.64-3.88z" fill="#fff"/><path d="m131.59 329.83 1.64 3.88-3.88 1.64-1.64-3.88z" fill="#fff"/><path d="m135.46 328.16 1.64 3.88-3.88 1.64-1.64-3.88z"/><path d="m141.09 330.28 1.64 3.88-3.88 1.64-1.64-3.88 3.89-1.64z"/><path d="m137.2 331.92 1.64 3.88-3.88 1.64-1.64-3.88z" fill="#fff"/><path d="m133.31 333.56 1.64 3.88-3.89 1.64-1.64-3.88 3.88-1.64z"/></svg>